<svg width="25" height="24" viewBox="0 0 25 24" fill="none" xmlns="http://www.w3.org/2000/svg">
<path d="M9.91664 22L9.51664 18.8C9.29997 18.7167 9.0958 18.6167 8.90414 18.5C8.71247 18.3833 8.52497 18.2583 8.34164 18.125L5.36664 19.375L2.61664 14.625L5.19164 12.675C5.17497 12.5583 5.16664 12.4458 5.16664 12.3375V11.6625C5.16664 11.5542 5.17497 11.4417 5.19164 11.325L2.61664 9.375L5.36664 4.625L8.34164 5.875C8.52497 5.74167 8.71664 5.61667 8.91664 5.5C9.11664 5.38333 9.31664 5.28333 9.51664 5.2L9.91664 2H15.4166L15.8166 5.2C16.0333 5.28333 16.2375 5.38333 16.4291 5.5C16.6208 5.61667 16.8083 5.74167 16.9916 5.875L19.9666 4.625L22.7166 9.375L20.1416 11.325C20.1583 11.4417 20.1666 11.5542 20.1666 11.6625V12.3375C20.1666 12.4458 20.15 12.5583 20.1166 12.675L22.6916 14.625L19.9416 19.375L16.9916 18.125C16.8083 18.2583 16.6166 18.3833 16.4166 18.5C16.2166 18.6167 16.0166 18.7167 15.8166 18.8L15.4166 22H9.91664ZM11.6666 20H13.6416L13.9916 17.35C14.5083 17.2167 14.9875 17.0208 15.4291 16.7625C15.8708 16.5042 16.275 16.1917 16.6416 15.825L19.1166 16.85L20.0916 15.15L17.9416 13.525C18.025 13.2917 18.0833 13.0458 18.1166 12.7875C18.15 12.5292 18.1666 12.2667 18.1666 12C18.1666 11.7333 18.15 11.4708 18.1166 11.2125C18.0833 10.9542 18.025 10.7083 17.9416 10.475L20.0916 8.85L19.1166 7.15L16.6416 8.2C16.275 7.81667 15.8708 7.49583 15.4291 7.2375C14.9875 6.97917 14.5083 6.78333 13.9916 6.65L13.6666 4H11.6916L11.3416 6.65C10.825 6.78333 10.3458 6.97917 9.90414 7.2375C9.46247 7.49583 9.05831 7.80833 8.69164 8.175L6.21664 7.15L5.24164 8.85L7.39164 10.45C7.3083 10.7 7.24997 10.95 7.21664 11.2C7.1833 11.45 7.16664 11.7167 7.16664 12C7.16664 12.2667 7.1833 12.525 7.21664 12.775C7.24997 13.025 7.3083 13.275 7.39164 13.525L5.24164 15.15L6.21664 16.85L8.69164 15.8C9.05831 16.1833 9.46247 16.5042 9.90414 16.7625C10.3458 17.0208 10.825 17.2167 11.3416 17.35L11.6666 20ZM12.7166 15.5C13.6833 15.5 14.5083 15.1583 15.1916 14.475C15.875 13.7917 16.2166 12.9667 16.2166 12C16.2166 11.0333 15.875 10.2083 15.1916 9.525C14.5083 8.84167 13.6833 8.5 12.7166 8.5C11.7333 8.5 10.9041 8.84167 10.2291 9.525C9.55414 10.2083 9.21664 11.0333 9.21664 12C9.21664 12.9667 9.55414 13.7917 10.2291 14.475C10.9041 15.1583 11.7333 15.5 12.7166 15.5Z" fill="#49454F"/>
</svg>
