<svg width="41" height="41" viewBox="0 0 41 41" fill="none" xmlns="http://www.w3.org/2000/svg">
<path d="M18.5417 30.2917H22.4584V22.4583H30.2917V18.5417H22.4584V10.7083H18.5417V18.5417H10.7084V22.4583H18.5417V30.2917ZM20.5 40.0833C17.791 40.0833 15.2452 39.5774 12.8625 38.5656C10.4799 37.5212 8.40731 36.1177 6.64481 34.3552C4.88231 32.5927 3.47884 30.5201 2.4344 28.1375C1.42259 25.7549 0.916687 23.209 0.916687 20.5C0.916687 17.791 1.42259 15.2451 2.4344 12.8625C3.47884 10.4798 4.88231 8.40728 6.64481 6.64478C8.40731 4.88228 10.4799 3.49513 12.8625 2.48332C15.2452 1.43888 17.791 0.916656 20.5 0.916656C23.209 0.916656 25.7549 1.43888 28.1375 2.48332C30.5202 3.49513 32.5927 4.88228 34.3552 6.64478C36.1177 8.40728 37.5049 10.4798 38.5167 12.8625C39.5611 15.2451 40.0834 17.791 40.0834 20.5C40.0834 23.209 39.5611 25.7549 38.5167 28.1375C37.5049 30.5201 36.1177 32.5927 34.3552 34.3552C32.5927 36.1177 30.5202 37.5212 28.1375 38.5656C25.7549 39.5774 23.209 40.0833 20.5 40.0833ZM20.5 36.1667C24.8736 36.1667 28.5781 34.6489 31.6136 31.6135C34.649 28.5781 36.1667 24.8736 36.1667 20.5C36.1667 16.1264 34.649 12.4219 31.6136 9.38645C28.5781 6.35103 24.8736 4.83332 20.5 4.83332C16.1264 4.83332 12.4219 6.35103 9.38648 9.38645C6.35106 12.4219 4.83335 16.1264 4.83335 20.5C4.83335 24.8736 6.35106 28.5781 9.38648 31.6135C12.4219 34.6489 16.1264 36.1667 20.5 36.1667Z" fill="#BD00FF"/>
</svg>
